# xmcd CD database file
#
# Track frame offsets:
#	150
#	19214
#	45979
#	73380
#	110841
#	137960
#	174581
#	190277
#	217107
#	250922
#
# Disc length: 3569 seconds
#
# Revision: 0
# Processed by: cddbd v1.5.2PL0 Copyright (c) Steve Scherf et al.
# Submitted via: CDex 1.51
#
DISCID=9e0def0a
DTITLE=Rissanen,Aki and Lehtonen,Jussi Quartet - With Dave Liebman
DYEAR=2014
DGENRE=Jazz
TTITLE0=Scriabin
TTITLE1=Three A´s
TTITLE2=Internal Affairs
TTITLE3=Pont Marie
TTITLE4=Get Over It
TTITLE5=Pensativa
TTITLE6=Free Ballad
TTITLE7=In The Corner
TTITLE8=Pastorale
TTITLE9=The Gong Song
EXTD=YEAR: 2014
EXTT0=
EXTT1=
EXTT2=
EXTT3=
EXTT4=
EXTT5=
EXTT6=
EXTT7=
EXTT8=
EXTT9=
PLAYORDER=
